REM DIRINDEX 1\2,1\3,1\4,1\6,1\5\7,1\5\8
REM DIRNAME cjc114,folder01,folder02,folder03,folder04,folder05,folder06,folder07
TITLE ""
FILE "DB4500_5th_3B_21.mp3" MP3
  TRACK 01 AUDIO
    TITLE "0:"
    INDEX 01 00:00:00
  TRACK 02 AUDIO
    TITLE "2:cjc114_2355"
    INDEX 01 00:00:03
  TRACK 03 AUDIO
    TITLE "0:"
    INDEX 01 00:01:05
  TRACK 04 AUDIO
    TITLE "3:cjc114_2356"
    INDEX 01 00:01:28
  TRACK 05 AUDIO
    TITLE "0:"
    INDEX 01 00:02:26
  TRACK 06 AUDIO
    TITLE "4:cjc114_2357"
    INDEX 01 00:02:51
  TRACK 07 AUDIO
    TITLE "0:"
    INDEX 01 00:06:35
  TRACK 08 AUDIO
    TITLE "2:cjc114_2358"
    INDEX 01 00:07:07
  TRACK 09 AUDIO
    TITLE "0:"
    INDEX 01 00:08:09
  TRACK 10 AUDIO
    TITLE "3:cjc114_2359"
    INDEX 01 00:08:34
  TRACK 11 AUDIO
    TITLE "0:"
    INDEX 01 00:09:34
  TRACK 12 AUDIO
    TITLE "4:cjc114_2360"
    INDEX 01 00:09:55
  TRACK 13 AUDIO
    TITLE "0:"
    INDEX 01 00:13:65
  TRACK 14 AUDIO
    TITLE "2:cjc114_2361"
    INDEX 01 00:14:37
  TRACK 15 AUDIO
    TITLE "0:"
    INDEX 01 00:15:54
  TRACK 16 AUDIO
    TITLE "3:cjc114_2362"
    INDEX 01 00:16:02
  TRACK 17 AUDIO
    TITLE "0:"
    INDEX 01 00:17:00
  TRACK 18 AUDIO
    TITLE "4:cjc114_2363"
    INDEX 01 00:17:21
  TRACK 19 AUDIO
    TITLE "0:"
    INDEX 01 00:21:45
  TRACK 20 AUDIO
    TITLE "2:cjc114_2364"
    INDEX 01 00:22:19
  TRACK 21 AUDIO
    TITLE "0:"
    INDEX 01 00:23:28
  TRACK 22 AUDIO
    TITLE "3:cjc114_2365"
    INDEX 01 00:23:51
  TRACK 23 AUDIO
    TITLE "0:"
    INDEX 01 00:24:47
  TRACK 24 AUDIO
    TITLE "4:cjc114_2366"
    INDEX 01 00:24:69
  TRACK 25 AUDIO
    TITLE "0:"
    INDEX 01 00:29:05
  TRACK 26 AUDIO
    TITLE "2:cjc114_2367"
    INDEX 01 00:29:54
  TRACK 27 AUDIO
    TITLE "0:"
    INDEX 01 00:30:67
  TRACK 28 AUDIO
    TITLE "3:cjc114_2368"
    INDEX 01 00:31:16
  TRACK 29 AUDIO
    TITLE "0:"
    INDEX 01 00:32:09
  TRACK 30 AUDIO
    TITLE "4:cjc114_2369"
    INDEX 01 00:32:37
  TRACK 31 AUDIO
    TITLE "0:"
    INDEX 01 00:36:68
  TRACK 32 AUDIO
    TITLE "2:cjc114_2370"
    INDEX 01 00:37:44
  TRACK 33 AUDIO
    TITLE "0:"
    INDEX 01 00:38:57
  TRACK 34 AUDIO
    TITLE "3:cjc114_2371"
    INDEX 01 00:39:05
  TRACK 35 AUDIO
    TITLE "0:"
    INDEX 01 00:40:13
  TRACK 36 AUDIO
    TITLE "4:cjc114_2372"
    INDEX 01 00:40:36
  TRACK 37 AUDIO
    TITLE "0:"
    INDEX 01 00:43:19
  TRACK 38 AUDIO
    TITLE "2:cjc114_2373"
    INDEX 01 00:43:66
  TRACK 39 AUDIO
    TITLE "0:"
    INDEX 01 00:45:08
  TRACK 40 AUDIO
    TITLE "3:cjc114_2374"
    INDEX 01 00:45:32
  TRACK 41 AUDIO
    TITLE "0:"
    INDEX 01 00:46:41
  TRACK 42 AUDIO
    TITLE "4:cjc114_2375"
    INDEX 01 00:46:64
  TRACK 43 AUDIO
    TITLE "0:"
    INDEX 01 00:50:50
  TRACK 44 AUDIO
    TITLE "2:cjc114_2376"
    INDEX 01 00:51:22
  TRACK 45 AUDIO
    TITLE "0:"
    INDEX 01 00:52:45
  TRACK 46 AUDIO
    TITLE "3:cjc114_2377"
    INDEX 01 00:52:69
  TRACK 47 AUDIO
    TITLE "0:"
    INDEX 01 00:53:68
  TRACK 48 AUDIO
    TITLE "4:cjc114_2378"
    INDEX 01 00:54:17
  TRACK 49 AUDIO
    TITLE "0:"
    INDEX 01 00:58:42
  TRACK 50 AUDIO
    TITLE "2:cjc114_2379"
    INDEX 01 00:59:12
  TRACK 51 AUDIO
    TITLE "0:"
    INDEX 01 01:00:12
  TRACK 52 AUDIO
    TITLE "3:cjc114_2380"
    INDEX 01 01:00:35
  TRACK 53 AUDIO
    TITLE "0:"
    INDEX 01 01:01:52
  TRACK 54 AUDIO
    TITLE "4:cjc114_2381"
    INDEX 01 01:02:03
  TRACK 55 AUDIO
    TITLE "0:"
    INDEX 01 01:05:38
  TRACK 56 AUDIO
    TITLE "2:cjc114_2382"
    INDEX 01 01:06:10
  TRACK 57 AUDIO
    TITLE "0:"
    INDEX 01 01:07:19
  TRACK 58 AUDIO
    TITLE "3:cjc114_2383"
    INDEX 01 01:07:45
  TRACK 59 AUDIO
    TITLE "0:"
    INDEX 01 01:08:44
  TRACK 60 AUDIO
    TITLE "4:cjc114_2384"
    INDEX 01 01:08:68
  TRACK 61 AUDIO
    TITLE "0:"
    INDEX 01 01:13:20
  TRACK 62 AUDIO
    TITLE "2:cjc114_2385"
    INDEX 01 01:13:67
  TRACK 63 AUDIO
    TITLE "0:"
    INDEX 01 01:14:74
  TRACK 64 AUDIO
    TITLE "3:cjc114_2386"
    INDEX 01 01:15:23
  TRACK 65 AUDIO
    TITLE "0:"
    INDEX 01 01:16:14
  TRACK 66 AUDIO
    TITLE "4:cjc114_2387"
    INDEX 01 01:16:34
  TRACK 67 AUDIO
    TITLE "0:"
    INDEX 01 01:21:57
  TRACK 68 AUDIO
    TITLE "2:cjc114_2388"
    INDEX 01 01:22:29
  TRACK 69 AUDIO
    TITLE "0:"
    INDEX 01 01:23:40
  TRACK 70 AUDIO
    TITLE "3:cjc114_2389"
    INDEX 01 01:23:63
  TRACK 71 AUDIO
    TITLE "0:"
    INDEX 01 01:25:04
  TRACK 72 AUDIO
    TITLE "4:cjc114_2390"
    INDEX 01 01:25:25
  TRACK 73 AUDIO
    TITLE "0:"
    INDEX 01 01:29:52
  TRACK 74 AUDIO
    TITLE "2:cjc114_2391"
    INDEX 01 01:30:26
  TRACK 75 AUDIO
    TITLE "0:"
    INDEX 01 01:31:22
  TRACK 76 AUDIO
    TITLE "3:cjc114_2392"
    INDEX 01 01:31:41
  TRACK 77 AUDIO
    TITLE "0:"
    INDEX 01 01:32:60
  TRACK 78 AUDIO
    TITLE "4:cjc114_2393"
    INDEX 01 01:33:09
  TRACK 79 AUDIO
    TITLE "0:"
    INDEX 01 01:36:43
